<?xml version="1.0" standalone="no"?>
<!DOCTYPE svg PUBLIC "-//W3C//DTD SVG 20010904//EN"
 "http://www.w3.org/TR/2001/REC-SVG-20010904/DTD/svg10.dtd">
<svg version="1.0" xmlns="http://www.w3.org/2000/svg"
 width="512.000000pt" height="512.000000pt" viewBox="0 0 512.000000 512.000000"
 preserveAspectRatio="xMidYMid meet">
<metadata>
Created by potrace 1.11, written by Peter Selinger 2001-2013
</metadata>
<g transform="translate(0.000000,512.000000) scale(0.100000,-0.100000)"
fill="#000000" stroke="none">
<path d="M2468 4884 c-3 -2 -27 -6 -54 -9 -27 -2 -59 -6 -71 -9 -13 -3 -33 -8
-45 -11 -365 -79 -729 -369 -980 -780 -57 -92 -160 -295 -192 -375 -92 -233
-178 -535 -200 -701 -2 -19 -9 -63 -15 -99 -37 -228 -45 -661 -16 -840 2 -14
6 -47 9 -75 14 -126 95 -464 118 -492 6 -7 8 -13 5 -13 -8 0 47 -139 94 -237
60 -126 148 -269 201 -328 18 -20 26 -37 22 -50 -4 -14 -2 -16 4 -7 6 10 17 2
43 -29 19 -24 44 -53 57 -66 18 -18 21 -27 12 -42 -5 -11 -6 -22 -1 -25 12 -8
20 4 14 20 -3 8 -1 14 4 14 12 0 66 -56 61 -63 -1 -3 0 -9 5 -13 4 -4 7 -1 7
7 1 9 7 7 19 -8 10 -12 22 -19 26 -15 5 4 5 2 2 -5 -4 -6 -1 -14 5 -16 8 -3 6
-6 -4 -6 -10 -1 -18 -5 -18 -10 0 -11 33 -9 41 3 8 10 29 -1 29 -16 0 -5 -7
-8 -15 -4 -17 6 -19 -2 -6 -23 11 -18 45 -6 35 11 -6 10 -5 11 8 1 8 -7 19 -9
23 -5 5 4 5 2 2 -4 -7 -13 19 -29 41 -25 6 1 12 -5 12 -14 0 -8 3 -14 8 -13
13 4 52 -13 52 -23 0 -5 3 -8 8 -7 14 4 52 -13 52 -23 0 -6 4 -8 9 -4 5 3 15
0 23 -7 7 -7 24 -15 38 -16 14 -2 29 -7 34 -12 5 -5 15 -6 22 -3 8 3 14 -1 14
-11 0 -12 7 -15 25 -12 15 3 23 1 20 -5 -4 -5 -11 -6 -17 -3 -7 4 -8 2 -4 -4
5 -8 13 -9 25 -2 10 5 20 7 22 5 5 -4 55 -16 76 -17 7 -1 10 -4 8 -8 -5 -9
-37 -6 -53 4 -7 4 -12 2 -12 -6 0 -9 -3 -9 -10 2 -5 8 -10 11 -10 7 0 -5 9
-20 20 -34 11 -14 20 -21 20 -16 0 5 -5 14 -12 21 -7 7 -8 12 -2 12 16 0 33
-21 28 -35 -3 -7 -1 -16 5 -20 12 -7 10 22 -2 42 -6 9 0 12 22 9 17 -2 29 0
26 3 -2 4 12 5 30 3 38 -5 53 -27 27 -41 -9 -5 -13 -13 -9 -17 9 -9 37 27 31
38 -3 5 -1 8 5 8 17 0 24 -22 10 -32 -12 -8 -11 -9 1 -5 8 2 14 12 14 21 -1 9
3 15 10 13 6 -2 10 -13 8 -23 -2 -15 0 -14 11 5 9 14 17 19 21 13 3 -6 2 -13
-4 -17 -5 -3 -10 -12 -10 -18 0 -7 8 -2 18 10 18 24 58 27 67 5 5 -15 -25 -13
-38 3 -5 6 -7 4 -4 -5 4 -17 52 -20 52 -3 0 6 3 15 8 19 4 4 7 3 7 -3 0 -6 51
-9 133 -8 84 1 137 -2 146 -9 11 -8 13 -8 7 2 -5 8 -1 12 11 13 96 6 181 17
194 25 8 5 9 3 4 -7 -7 -11 -6 -12 6 -2 14 11 29 16 94 29 17 3 37 8 45 11 8
3 20 7 25 8 43 11 155 55 230 90 405 193 705 573 864 1090 30 97 66 248 75
316 3 19 7 45 10 59 6 27 10 65 23 195 15 148 7 583 -12 685 -2 14 -7 48 -9
75 -3 28 -8 61 -11 75 -2 14 -7 36 -9 50 -12 68 -40 194 -62 275 -14 49 -26
97 -29 105 -2 8 -4 16 -5 18 -2 1 -3 5 -4 10 -27 102 -105 300 -174 440 -208
420 -484 719 -817 885 -83 42 -215 91 -275 102 -14 3 -41 8 -60 11 -19 4 -44
9 -55 11 -28 7 -311 13 -317 7z"/>
<path d="M1356 827 c3 -10 9 -15 12 -12 3 3 0 11 -7 18 -10 9 -11 8 -5 -6z"/>
<path d="M1320 815 c-7 -9 -11 -17 -9 -20 3 -2 10 5 17 15 14 24 10 26 -8 5z"/>
<path d="M1382 800 c0 -14 2 -19 5 -12 2 6 2 18 0 25 -3 6 -5 1 -5 -13z"/>
<path d="M1336 795 c-4 -10 3 -20 19 -27 24 -11 26 -32 1 -22 -7 3 -19 -2 -26
-10 -7 -9 -16 -14 -20 -11 -4 3 -10 -2 -14 -10 -3 -8 0 -17 6 -21 7 -4 8 -3 4
4 -4 7 -2 13 3 13 6 1 17 2 24 3 6 1 18 -7 26 -18 13 -17 12 -21 -10 -39 -13
-11 -22 -27 -21 -35 3 -13 1 -14 -12 -3 -13 11 -17 11 -22 -3 -3 -9 -3 -24 1
-34 6 -15 8 -15 26 7 11 13 18 30 15 38 -7 16 1 17 18 1 11 -11 8 -19 -20 -45
-18 -18 -29 -33 -24 -33 5 0 11 4 15 9 3 6 14 9 25 8 20 -1 34 -26 39 -68 0
-6 9 -8 19 -5 14 5 18 1 17 -16 0 -13 -4 -29 -8 -35 -5 -8 -4 -13 2 -13 6 0
11 5 11 11 0 5 5 7 10 4 6 -3 10 -2 10 4 0 5 -4 13 -10 16 -12 8 -13 25 -2 25
5 0 14 -10 20 -22 6 -13 11 -17 11 -10 1 6 6 12 12 12 6 0 8 -9 4 -22 -4 -16
-3 -19 3 -9 8 11 10 11 14 0 3 -10 10 -9 28 4 27 19 44 22 35 7 -3 -5 0 -7 8
-4 8 3 14 -1 14 -10 0 -8 -9 -14 -19 -13 -10 1 -18 5 -18 9 0 5 -9 3 -19 -4
-18 -11 -18 -13 -3 -25 9 -7 21 -13 26 -13 6 0 1 7 -10 15 -19 15 -19 16 1 13
29 -4 36 -31 13 -44 -18 -10 -19 -12 -4 -17 10 -4 15 -3 12 2 -5 8 21 26 35
23 3 0 6 4 7 11 0 7 3 21 6 32 2 11 5 22 5 25 1 3 5 -1 10 -9 6 -9 5 -21 -2
-32 -9 -14 -8 -22 1 -31 10 -10 15 -10 22 2 5 8 7 22 5 31 -3 9 0 16 7 16 7 0
19 2 27 4 7 2 16 -2 18 -9 3 -7 1 -12 -4 -11 -17 3 -36 -1 -30 -7 3 -4 0 -19
-8 -34 -14 -27 -13 -29 13 -45 26 -16 27 -16 6 2 -22 20 -21 45 2 36 7 -3 12
-9 9 -13 -3 -5 0 -12 6 -16 16 -9 39 24 31 44 -5 15 -4 16 13 2 10 -8 16 -10
12 -4 -4 7 -1 17 6 23 11 8 14 5 14 -18 0 -20 -4 -28 -14 -24 -7 3 -13 -1 -13
-8 0 -7 3 -9 7 -6 3 4 12 2 19 -4 16 -13 34 -4 34 17 0 8 5 14 11 14 5 0 7 -5
3 -12 -4 -7 -3 -8 4 -4 19 11 14 -5 -5 -21 -16 -13 -16 -13 5 -3 12 6 21 18
20 27 -2 9 3 18 11 21 8 3 11 0 7 -7 -5 -7 -1 -9 11 -4 10 3 15 2 10 -2 -9
-11 21 -45 40 -45 8 0 11 -5 8 -10 -3 -6 1 -13 9 -16 9 -3 14 -9 11 -13 -2 -4
2 -8 10 -8 22 0 18 15 -5 22 -11 4 -18 10 -15 15 3 5 13 6 22 3 12 -5 14 -3 8
7 -6 10 -4 12 11 6 14 -5 16 -4 7 4 -7 8 -17 9 -28 2 -20 -11 -55 -5 -55 10 0
5 9 6 20 3 11 -3 20 -2 20 4 0 16 44 3 62 -19 9 -11 20 -20 24 -20 4 0 3 5 -4
12 -7 7 -12 17 -12 22 1 6 10 0 21 -13 l20 -25 -23 -12 c-13 -8 -19 -13 -15
-14 5 0 17 5 28 10 15 9 17 15 9 30 -7 13 -7 20 -1 20 16 0 33 -38 21 -45 -5
-3 -10 -11 -10 -18 0 -6 7 -2 16 9 12 15 14 15 11 2 -6 -16 16 -20 28 -5 3 4
2 5 -2 2 -11 -9 -55 65 -49 83 5 13 2 12 -9 -3 -19 -23 -23 -22 -52 18 -13 17
-23 25 -23 17 0 -9 -5 -7 -14 6 -8 10 -18 16 -22 12 -4 -4 -13 -3 -21 3 -7 6
-13 8 -13 4 0 -5 -9 0 -20 10 -11 10 -20 15 -20 11 0 -4 -12 2 -26 13 -15 11
-30 18 -35 15 -4 -2 -18 5 -29 16 -11 11 -25 18 -30 15 -6 -4 -13 1 -16 9 -3
9 -10 14 -14 11 -5 -3 -11 -1 -15 4 -3 6 -13 7 -22 4 -10 -4 -14 -2 -9 5 3 6
2 13 -4 17 -6 3 -13 -1 -16 -9 -8 -20 -40 -4 -49 24 -4 12 -14 19 -23 18 -11
-2 -17 4 -18 17 -2 42 -4 47 -18 42 -14 -6 -40 15 -31 25 3 2 -7 15 -22 29
-14 13 -23 19 -19 12 3 -6 2 -14 -4 -18 -16 -10 -12 -28 6 -21 10 4 13 2 8 -6
-4 -6 -3 -8 4 -4 6 4 9 -3 8 -18 -2 -19 1 -23 16 -21 10 2 23 7 29 11 8 5 8 1
0 -14 -6 -11 -11 -23 -11 -27 0 -3 5 -3 11 1 8 5 8 1 0 -14 -14 -26 -14 -43 0
-19 8 14 14 16 25 6 11 -9 14 -9 14 0 0 7 5 9 10 6 6 -3 10 -11 10 -16 0 -6
-5 -7 -11 -3 -8 4 -8 0 0 -15 14 -25 23 -28 15 -3 -5 14 -4 14 4 2 6 -8 22
-15 37 -16 25 -1 49 -14 27 -14 -20 0 -13 -16 8 -17 11 -1 19 1 17 5 -4 13 8
14 36 1 15 -7 27 -16 27 -21 0 -5 -4 -7 -8 -4 -4 2 -14 1 -21 -3 -9 -6 -10
-11 -2 -15 5 -4 19 2 30 13 16 16 20 17 25 5 3 -8 2 -12 -3 -9 -5 3 -12 1 -15
-4 -4 -5 4 -8 17 -7 13 2 31 -2 40 -9 13 -9 6 -11 -36 -10 -29 1 -58 -3 -66
-9 -12 -9 -13 -8 -6 3 6 10 4 12 -6 6 -12 -7 -12 -6 -1 7 10 13 9 18 -5 29
-15 12 -16 12 -9 -1 4 -8 0 -6 -10 5 -13 15 -15 16 -11 3 4 -12 1 -16 -14 -13
-10 2 -19 0 -19 -6 0 -5 -5 -9 -11 -9 -8 0 -7 5 2 16 10 13 10 17 -1 24 -9 5
-20 4 -29 -3 -12 -10 -13 -9 -6 3 6 12 6 13 -6 2 -12 -11 -12 -14 0 -21 8 -5
9 -11 3 -15 -12 -7 -24 22 -15 37 3 7 3 9 -2 5 -4 -4 -15 -2 -23 5 -13 10 -14
9 -7 -3 8 -13 6 -13 -8 -1 -9 7 -14 18 -10 24 4 6 1 7 -8 2 -11 -7 -11 -5 1
11 14 18 13 18 -10 -1 l-25 -20 18 21 c16 20 25 55 10 40 -5 -4 -8 -11 -8 -14
0 -4 -8 -17 -17 -30 -10 -15 -18 -20 -23 -12 -4 6 -1 19 7 28 12 16 11 16 -7
2 -11 -8 -17 -10 -13 -6 4 5 3 15 -3 23 -9 11 -15 11 -28 1 -11 -9 -10 -6 2 9
11 12 16 27 11 34 -5 8 -3 10 6 4 9 -6 11 -4 5 5 -6 9 -4 11 6 5 11 -7 11 -5
-1 10 -8 10 -10 16 -3 12 19 -12 6 36 -14 51 -9 6 -12 12 -7 12 13 0 16 38 3
45 -9 6 -13 -8 -9 -34 1 -11 -1 -12 -12 -4 -7 6 -17 11 -23 11 -5 0 -11 5 -13
11 -2 6 3 8 11 5 20 -7 31 11 19 32 -8 15 -10 15 -15 0 -4 -9 -13 -13 -22 -10
-8 3 -12 10 -9 15 3 5 -2 6 -11 3 -11 -5 -14 -2 -9 10 3 9 4 16 1 16 -3 0 -8
-7 -11 -15z m74 -35 c0 -5 -5 -10 -11 -10 -5 0 -7 5 -4 10 3 6 8 10 11 10 2 0
4 -4 4 -10z m-32 -36 c12 -8 22 -12 22 -7 1 4 10 -3 20 -16 11 -13 20 -19 20
-15 0 5 4 2 10 -6 5 -9 5 -19 -2 -27 -6 -7 -7 -13 -3 -13 4 0 2 -7 -5 -15 -7
-8 -9 -15 -5 -15 4 0 0 -12 -10 -26 -19 -29 -13 -43 10 -24 14 12 20 7 16 -14
-1 -5 6 -17 15 -27 12 -13 21 -16 34 -9 13 7 22 4 35 -10 10 -11 21 -17 25
-15 4 3 10 -1 13 -8 3 -9 -2 -13 -16 -12 -12 1 -27 -5 -33 -13 -10 -14 -13
-13 -23 7 -7 12 -17 21 -23 19 -6 -2 -23 6 -36 19 -19 18 -27 20 -34 11 -4 -7
-8 -10 -8 -5 0 15 -2 22 -11 38 -6 12 -3 21 14 33 19 14 20 15 2 9 -18 -6 -18
-5 -6 10 7 9 18 14 25 10 6 -4 4 2 -4 12 -8 11 -10 16 -3 11 9 -5 11 -2 7 8
-4 10 1 18 10 22 15 6 14 9 -6 23 -13 8 -25 14 -26 13 -2 -2 -10 5 -18 15 -13
16 -13 15 -3 -9 7 -16 17 -28 22 -28 6 0 7 -3 3 -7 -7 -8 -12 -9 -38 -12 -6 0
-3 -8 8 -16 10 -8 14 -15 9 -15 -6 0 -16 5 -23 12 -9 9 -8 16 4 29 14 16 14
20 -1 43 -10 14 -22 23 -28 19 -6 -3 -7 -1 -3 5 9 16 17 15 44 -4z m133 -41
c12 -16 12 -17 -2 -6 -9 7 -20 9 -24 5 -5 -4 -5 -1 -1 6 9 16 11 15 27 -5z
m-94 -34 c-14 -22 -23 -24 -33 -6 -4 6 -4 9 1 5 4 -4 14 -3 22 3 11 10 11 15
1 28 -12 14 -11 14 4 3 14 -11 15 -17 5 -33z m111 -14 c-3 -3 -9 2 -12 12 -6
14 -5 15 5 6 7 -7 10 -15 7 -18z m-216 -47 c-9 -9 -12 -7 -12 12 0 19 3 21 12
12 9 -9 9 -15 0 -24z m84 16 c-9 -8 -14 -19 -11 -24 3 -5 -4 -8 -15 -7 -26 2
-25 12 2 31 29 21 44 20 24 0z m223 -150 c-12 -13 -19 -24 -15 -24 4 0 2 -9
-4 -21 -7 -11 -14 -18 -17 -15 -3 3 0 12 7 21 7 8 9 15 5 15 -5 0 0 9 10 20
10 11 15 20 11 20 -4 0 -4 5 -1 10 4 6 11 8 16 4 6 -4 1 -16 -12 -30z m246
-14 c4 -6 10 -8 15 -5 4 3 13 -2 20 -10 7 -8 16 -13 20 -10 5 3 11 1 15 -4 3
-6 12 -8 19 -5 7 3 16 -2 20 -11 3 -9 10 -14 15 -11 11 7 36 -22 28 -31 -4 -3
-12 -1 -20 5 -10 8 -52 10 -52 2 0 -1 -12 -3 -28 -5 -15 -2 -25 0 -22 5 9 14
-35 34 -47 22 -6 -6 -17 -8 -25 -5 -9 4 -16 -2 -20 -16 -8 -32 -19 -25 -17 11
3 44 -4 53 -27 32 -14 -12 -19 -13 -19 -4 0 21 -13 2 -16 -23 -1 -12 -3 -25
-3 -29 -1 -5 -6 -8 -12 -8 -5 0 -8 4 -4 9 3 6 -2 14 -11 19 -13 7 -14 13 -6
28 6 10 12 15 12 11 0 -4 10 -2 23 5 12 7 45 13 72 14 72 2 73 2 45 25 -22 18
-22 19 -3 10 12 -6 25 -16 28 -21z m-151 9 c-2 -4 -13 -6 -24 -4 -11 2 -20 0
-20 -4 0 -4 -7 -8 -16 -8 -15 0 -15 2 -1 12 17 12 68 15 61 4z m-64 -48 c0 -6
-4 -13 -10 -16 -5 -3 -10 1 -10 9 0 9 5 16 10 16 6 0 10 -4 10 -9z"/>
<path d="M1415 538 c11 -9 28 -24 38 -33 10 -9 21 -15 23 -12 3 3 -6 14 -20
24 -20 16 -23 23 -13 34 10 11 9 11 -5 0 -11 -8 -23 -10 -31 -5 -7 5 -4 1 8
-8z"/>
<path d="M1501 496 c-8 -10 -8 -16 3 -25 10 -8 16 -9 21 -1 3 6 12 7 18 3 7
-3 3 3 -7 15 -23 26 -21 26 -35 8z m23 -17 c-3 -5 -10 -7 -15 -3 -5 3 -7 10
-3 15 3 5 10 7 15 3 5 -3 7 -10 3 -15z"/>
<path d="M1854 419 c-3 -5 -19 -7 -36 -4 l-31 6 24 -20 c20 -17 26 -18 35 -6
8 11 13 12 22 3 7 -7 12 -8 12 -2 0 5 4 3 8 -4 14 -21 59 -25 66 -5 4 10 4 14
0 10 -4 -4 -13 -2 -21 4 -7 6 -13 8 -13 4 0 -4 -7 -1 -16 6 -20 16 -42 20 -50
8z m46 -14 c8 -5 18 -10 22 -10 3 0 9 -3 13 -7 12 -11 -22 -3 -37 10 -8 6 -17
9 -20 6 -3 -3 -9 -1 -12 4 -7 12 13 10 34 -3z"/>
<path d="M1700 390 c-9 -6 -10 -10 -3 -10 6 0 15 5 18 10 8 12 4 12 -15 0z"/>
<path d="M1215 780 c3 -5 8 -10 11 -10 2 0 4 5 4 10 0 6 -5 10 -11 10 -5 0 -7
-4 -4 -10z"/>
<path d="M1290 774 c0 -2 9 -8 20 -14 11 -6 20 -7 20 -2 0 6 -9 12 -20 15 -11
3 -20 3 -20 1z"/>
<path d="M1273 728 c-2 -18 0 -20 7 -8 12 18 13 30 2 30 -4 0 -9 -10 -9 -22z"/>
<path d="M1175 700 c-3 -5 -1 -10 4 -10 6 0 11 5 11 10 0 6 -2 10 -4 10 -3 0
-8 -4 -11 -10z"/>
<path d="M1260 691 c0 -7 -5 -9 -12 -5 -7 5 -8 3 -3 -5 5 -9 10 -10 18 -2 6 6
8 14 4 18 -4 3 -7 1 -7 -6z"/>
<path d="M1330 690 c13 -9 8 -14 -12 -12 -3 1 -11 -5 -18 -12 -18 -22 3 -26
28 -5 23 18 22 39 -1 39 -7 0 -6 -4 3 -10z"/>
<path d="M1206 678 c3 -5 10 -6 15 -3 13 9 11 12 -6 12 -8 0 -12 -4 -9 -9z"/>
<path d="M1276 675 c-9 -26 -7 -32 5 -12 6 10 9 21 6 23 -2 3 -7 -2 -11 -11z"/>
<path d="M1175 660 c-3 -5 -1 -10 4 -10 6 0 11 5 11 10 0 6 -2 10 -4 10 -3 0
-8 -4 -11 -10z"/>
<path d="M1474 643 c2 -10 -3 -28 -11 -40 -14 -21 -7 -34 20 -39 4 -1 10 -2
13 -3 4 0 0 -9 -7 -18 -13 -16 -12 -17 3 -4 10 7 16 17 13 21 -5 9 19 32 26
25 3 -2 5 4 5 14 0 14 -6 18 -23 15 -18 -4 -22 0 -20 17 1 12 -3 24 -10 26 -6
2 -10 -4 -9 -14z m22 -44 c4 -8 9 -7 15 2 5 8 9 9 9 3 0 -6 -6 -16 -12 -21
-15 -11 -38 -11 -38 0 0 4 0 12 0 17 0 13 17 13 26 -1z"/>
<path d="M1476 592 c-3 -5 1 -9 9 -9 8 0 12 4 9 9 -3 4 -7 8 -9 8 -2 0 -6 -4
-9 -8z"/>
<path d="M1219 633 c-13 -16 -12 -17 4 -4 9 7 17 15 17 17 0 8 -8 3 -21 -13z"/>
<path d="M1175 620 c3 -5 8 -10 11 -10 2 0 4 5 4 10 0 6 -5 10 -11 10 -5 0 -7
-4 -4 -10z"/>
<path d="M1256 615 c5 -11 2 -14 -10 -9 -9 3 -16 2 -16 -4 0 -13 33 -8 37 5 2
6 -1 14 -6 18 -7 3 -8 0 -5 -10z"/>
<path d="M1175 580 c3 -5 8 -10 11 -10 2 0 4 5 4 10 0 6 -5 10 -11 10 -5 0 -7
-4 -4 -10z"/>
<path d="M1270 581 c0 -6 4 -13 10 -16 6 -3 7 1 4 9 -7 18 -14 21 -14 7z"/>
<path d="M1564 563 c3 -6 1 -13 -6 -15 -6 -2 -12 -12 -14 -21 -1 -9 2 -15 6
-12 5 3 11 2 14 -3 3 -5 22 -8 43 -7 29 1 41 -4 50 -19 11 -20 11 -19 10 5 -2
21 -7 25 -27 24 -17 -2 -34 8 -53 29 -16 17 -26 26 -23 19z m18 -38 c3 0 9 -3
13 -7 4 -3 0 -5 -9 -4 -9 1 -22 8 -29 16 -10 10 -9 11 3 4 8 -5 18 -9 22 -9z"/>
<path d="M1236 552 c-2 -4 4 -8 14 -8 10 0 16 4 14 8 -3 4 -9 8 -14 8 -5 0
-11 -4 -14 -8z"/>
<path d="M1176 542 c-2 -4 -1 -14 4 -22 7 -11 9 -9 7 8 -1 24 -3 26 -11 14z"/>
<path d="M1346 525 c20 -30 19 -30 21 -5 1 11 -2 18 -8 15 -5 -4 -9 -1 -9 4 0
6 -5 11 -10 11 -6 0 -3 -11 6 -25z"/>
<path d="M1246 518 c3 -5 10 -6 15 -3 13 9 11 12 -6 12 -8 0 -12 -4 -9 -9z"/>
<path d="M1304 515 c-18 -15 -18 -15 0 -8 13 4 17 3 12 -5 -5 -8 -1 -10 11 -5
16 6 16 5 4 -11 -10 -12 -11 -20 -4 -27 8 -8 13 -7 18 2 5 8 4 10 -3 5 -15 -9
-15 7 0 22 9 9 7 13 -5 18 -9 3 -14 10 -11 15 8 13 0 11 -22 -6z"/>
<path d="M1714 492 c2 -9 6 -16 10 -15 23 6 24 9 7 20 -16 10 -19 9 -17 -5z"/>
<path d="M1266 478 c3 -5 10 -6 15 -3 13 9 11 12 -6 12 -8 0 -12 -4 -9 -9z"/>
<path d="M1360 480 c0 -5 5 -10 10 -10 6 0 10 5 10 10 0 6 -4 10 -10 10 -5 0
-10 -4 -10 -10z"/>
<path d="M1235 461 c-3 -5 -2 -12 3 -15 5 -3 9 1 9 9 0 17 -3 19 -12 6z"/>
<path d="M1390 460 c0 -5 5 -10 10 -10 6 0 10 5 10 10 0 6 -4 10 -10 10 -5 0
-10 -4 -10 -10z"/>
<path d="M1296 438 c3 -5 10 -6 15 -3 13 9 11 12 -6 12 -8 0 -12 -4 -9 -9z"/>
<path d="M1350 440 c0 -4 7 -13 15 -20 13 -11 14 -10 9 5 -6 14 -4 16 7 10 8
-5 11 -4 6 0 -10 12 -37 15 -37 5z"/>
<path d="M1457 433 c-4 -3 -7 -11 -7 -17 0 -6 5 -5 12 2 6 6 9 14 7 17 -3 3
-9 2 -12 -2z"/>
<path d="M1490 415 c0 -5 5 -17 10 -25 5 -8 10 -10 10 -5 0 6 -5 17 -10 25 -5
8 -10 11 -10 5z"/>
<path d="M1435 391 c-3 -5 -2 -12 3 -15 5 -3 9 1 9 9 0 17 -3 19 -12 6z"/>
<path d="M1393 373 c0 -9 4 -10 14 -2 7 6 13 12 13 14 0 1 -6 2 -13 2 -8 0
-14 -6 -14 -14z"/>
<path d="M1470 380 c-13 -8 -12 -10 3 -10 9 0 17 5 17 10 0 12 -1 12 -20 0z"/>
<path d="M1507 359 c7 -9 10 -19 6 -22 -3 -4 -1 -7 5 -7 17 0 15 16 -5 31 -16
12 -17 12 -6 -2z"/>
<path d="M1598 363 c7 -3 16 -2 19 1 4 3 -2 6 -13 5 -11 0 -14 -3 -6 -6z"/>
<path d="M1333 335 c0 -8 4 -12 9 -9 5 3 6 10 3 15 -9 13 -12 11 -12 -6z"/>
<path d="M1856 334 c-8 -21 -8 -24 5 -24 5 0 7 5 4 10 -3 6 -2 10 4 10 5 0 12
-6 14 -12 4 -8 6 -9 6 -2 1 6 -5 17 -13 23 -11 9 -15 8 -20 -5z"/>
<path d="M3016 342 c-2 -4 -1 -14 4 -22 7 -11 9 -9 7 8 -1 24 -3 26 -11 14z"/>
<path d="M1455 329 c-4 -6 -5 -12 -2 -15 2 -3 7 2 10 11 7 17 1 20 -8 4z"/>
<path d="M2201 331 c-8 -5 -20 -7 -28 -4 -8 3 -13 -2 -13 -13 0 -11 4 -15 8
-9 4 6 16 12 26 13 17 3 18 1 7 -12 -7 -8 -21 -18 -32 -21 -10 -4 -19 -11 -19
-16 0 -6 10 -3 21 5 12 8 29 12 38 9 12 -4 13 -3 2 5 -9 7 -10 12 -2 16 6 4 8
12 5 18 -5 8 -1 9 10 5 10 -4 15 -3 11 3 -8 12 -16 12 -34 1z"/>
<path d="M1565 320 c-3 -6 1 -7 9 -4 18 7 21 14 7 14 -6 0 -13 -4 -16 -10z"/>
<path d="M1720 320 c-8 -5 -10 -10 -5 -10 6 0 17 5 25 10 8 5 11 10 5 10 -5 0
-17 -5 -25 -10z"/>
<path d="M1801 308 c9 -7 14 -19 12 -25 -6 -18 4 -16 11 2 3 9 -3 19 -17 25
-19 10 -20 9 -6 -2z"/>
<path d="M1670 301 c14 -10 7 -16 -15 -11 -5 1 -6 -2 -2 -6 4 -4 14 -9 21 -10
18 -3 13 29 -5 34 -11 3 -11 1 1 -7z"/>
<path d="M1758 303 c13 -3 19 -9 16 -15 -4 -7 -2 -8 5 -4 17 11 3 26 -22 25
-22 -2 -22 -2 1 -6z"/>
<path d="M1895 301 c-3 -5 0 -13 6 -17 7 -4 9 -3 5 4 -3 5 0 13 6 15 9 4 10 6
1 6 -6 1 -14 -3 -18 -8z"/>
<path d="M1990 300 c0 -5 5 -10 10 -10 6 0 10 5 10 10 0 6 -4 10 -10 10 -5 0
-10 -4 -10 -10z"/>
<path d="M2570 300 c0 -5 5 -10 11 -10 5 0 7 5 4 10 -3 6 -8 10 -11 10 -2 0
-4 -4 -4 -10z"/>
<path d="M2681 301 c-8 -5 -9 -11 -3 -15 5 -3 12 1 16 9 6 17 6 18 -13 6z"/>
<path d="M2752 291 c7 -9 13 -18 15 -20 1 -2 1 5 0 16 0 11 -7 20 -14 20 -10
0 -10 -4 -1 -16z"/>
<path d="M2790 295 c5 -7 6 -16 2 -21 -4 -5 -3 -5 2 -1 15 12 15 34 0 34 -9 0
-11 -4 -4 -12z"/>
<path d="M1840 293 c0 -6 8 -17 18 -24 16 -13 16 -13 2 6 -8 11 -16 22 -17 24
-2 2 -3 0 -3 -6z"/>
<path d="M1870 291 c0 -6 4 -13 10 -16 6 -3 7 1 4 9 -7 18 -14 21 -14 7z"/>
<path d="M2485 283 c-11 -25 -15 -46 -7 -38 4 4 7 10 7 13 0 4 4 13 9 20 4 7
6 15 3 18 -2 3 -8 -3 -12 -13z"/>
<path d="M2621 278 c-13 -21 -13 -22 2 -9 14 11 20 11 34 0 15 -13 15 -12 2 9
-8 12 -16 22 -19 22 -3 0 -11 -10 -19 -22z"/>
<path d="M1546 278 c3 -5 10 -6 15 -3 13 9 11 12 -6 12 -8 0 -12 -4 -9 -9z"/>
<path d="M1613 271 c0 -11 5 -18 9 -15 4 3 5 11 1 19 -7 21 -12 19 -10 -4z"/>
<path d="M2291 287 c2 -1 14 -11 27 -21 12 -11 22 -16 22 -13 0 10 -31 37 -42
37 -6 0 -9 -1 -7 -3z"/>
<path d="M2346 282 c-2 -4 4 -8 14 -8 10 0 16 4 14 8 -3 4 -9 8 -14 8 -5 0
-11 -4 -14 -8z"/>
<path d="M2430 278 c0 -4 7 -8 15 -8 8 0 15 4 15 8 0 5 -7 9 -15 9 -8 0 -15
-4 -15 -9z"/>
<path d="M2515 280 c3 -5 8 -10 11 -10 2 0 4 5 4 10 0 6 -5 10 -11 10 -5 0 -7
-4 -4 -10z"/>
<path d="M2855 280 c3 -5 8 -10 11 -10 2 0 4 5 4 10 0 6 -5 10 -11 10 -5 0 -7
-4 -4 -10z"/>
<path d="M1995 269 c-4 -6 -5 -12 -2 -15 2 -3 7 2 10 11 7 17 1 20 -8 4z"/>
<path d="M2387 267 c-3 -8 1 -14 8 -14 7 0 11 6 8 14 -6 16 -10 16 -16 0z"/>
<path d="M1918 263 c7 -3 16 -2 19 1 4 3 -2 6 -13 5 -11 0 -14 -3 -6 -6z"/>
<path d="M2015 261 c-3 -5 -2 -12 3 -15 5 -3 9 1 9 9 0 17 -3 19 -12 6z"/>
<path d="M2040 266 c0 -2 7 -7 16 -10 8 -3 12 -2 9 4 -6 10 -25 14 -25 6z"/>
<path d="M2175 259 c-5 -8 -4 -10 3 -5 7 4 12 3 12 -3 0 -5 -6 -12 -12 -14
-10 -4 -10 -6 -1 -6 17 -1 27 19 15 31 -6 6 -12 6 -17 -3z"/>
<path d="M2285 260 c-8 -13 3 -30 18 -29 9 0 9 2 0 6 -7 2 -13 9 -13 14 0 6 5
7 12 3 7 -4 8 -3 4 4 -9 15 -13 15 -21 2z"/>
<path d="M2544 263 c4 -4 16 -8 28 -10 28 -4 18 6 -12 12 -12 2 -20 1 -16 -2z"/>
<path d="M1813 245 c0 -8 4 -12 9 -9 5 3 6 10 3 15 -9 13 -12 11 -12 -6z"/>
<path d="M1893 246 c0 -15 22 -15 34 0 4 5 4 6 -1 2 -5 -4 -14 -3 -21 2 -8 7
-12 5 -12 -4z"/>
<path d="M2115 248 c25 -15 47 -19 39 -7 -3 5 -9 7 -14 4 -5 -3 -11 -1 -15 5
-3 5 -12 10 -18 10 -7 0 -3 -6 8 -12z"/>
<path d="M2350 256 c0 -2 8 -10 18 -17 15 -13 16 -12 3 4 -13 16 -21 21 -21
13z"/>
<path d="M2835 251 c-3 -5 -2 -12 3 -15 5 -3 9 1 9 9 0 17 -3 19 -12 6z"/>
<path d="M1856 233 c-6 -14 -5 -15 5 -6 7 7 10 15 7 18 -3 3 -9 -2 -12 -12z"/>
<path d="M2037 235 c-4 -8 -3 -16 1 -19 4 -3 9 4 9 15 2 23 -3 25 -10 4z"/>
<path d="M2630 238 c0 -4 4 -8 9 -8 6 0 12 4 15 8 3 5 -1 9 -9 9 -8 0 -15 -4
-15 -9z"/>
<path d="M2790 241 c0 -6 4 -13 10 -16 6 -3 7 1 4 9 -7 18 -14 21 -14 7z"/>
<path d="M2075 229 c-4 -6 -5 -12 -2 -15 2 -3 7 2 10 11 7 17 1 20 -8 4z"/>
<path d="M2095 209 c-4 -6 -5 -12 -2 -15 2 -3 7 2 10 11 7 17 1 20 -8 4z"/>
<path d="M2136 207 c3 -10 9 -15 12 -12 3 3 0 11 -7 18 -10 9 -11 8 -5 -6z"/>
<path d="M2433 205 c0 -8 4 -12 9 -9 5 3 6 10 3 15 -9 13 -12 11 -12 -6z"/>
<path d="M2190 199 c0 -5 5 -7 10 -4 6 3 10 8 10 11 0 2 -4 4 -10 4 -5 0 -10
-5 -10 -11z"/>
<path d="M2310 199 c0 -5 5 -7 10 -4 6 3 10 8 10 11 0 2 -4 4 -10 4 -5 0 -10
-5 -10 -11z"/>
<path d="M2490 200 c0 -5 5 -10 11 -10 5 0 7 5 4 10 -3 6 -8 10 -11 10 -2 0
-4 -4 -4 -10z"/>
<path d="M2235 169 c-4 -6 -5 -12 -2 -15 2 -3 7 2 10 11 7 17 1 20 -8 4z"/>
<path d="M2716 153 c-6 -14 -5 -15 5 -6 7 7 10 15 7 18 -3 3 -9 -2 -12 -12z"/>
<path d="M1916 102 c-3 -5 1 -9 9 -9 8 0 12 4 9 9 -3 4 -7 8 -9 8 -2 0 -6 -4
-9 -8z"/>
<path d="M2109 83 c-13 -16 -12 -17 4 -4 9 7 17 15 17 17 0 8 -8 3 -21 -13z"/>
</g>
</svg>
